<?xml version='1.0' encoding='utf-8'?>
<svg xmlns="http://www.w3.org/2000/svg" baseProfile="tiny" height="657" version="1.2" width="1028" viewBox="0.0 0.0 1028.0 657.0"><g id="autofit" transform="translate(0.000000,47.066876) scale(1.459854015) translate(-121.818000,-122.866197)"><defs /><path d="M 766,396 L 764,394 L 761,394 L 754,400 L 747,404 L 743,408 L 736,412 L 732,416 L 724,421 L 724,423 L 725,424 L 728,424 L 730,422 L 731,422 L 733,420 L 734,420 L 736,418 L 737,418 L 739,416 L 740,416 L 742,414 L 743,414 L 745,412 L 746,412 L 748,410 L 749,410 L 751,408 L 758,404 L 762,400 L 765,399 L 766,398 Z" fill="black" stroke="none" /><path d="M 612,378 L 608,378 L 590,391 L 587,392 L 579,398 L 577,398 L 575,400 L 574,400 L 573,401 L 573,404 L 579,403 L 581,401 L 584,401 L 585,402 L 577,408 L 575,408 L 571,411 L 571,413 L 572,414 L 577,413 L 579,411 L 582,411 L 583,412 L 579,414 L 574,418 L 573,418 L 573,421 L 577,421 L 579,419 L 582,418 L 584,416 L 586,416 L 588,414 L 589,414 L 591,416 L 587,420 L 579,424 L 577,426 L 577,428 L 578,429 L 580,429 L 587,424 L 589,424 L 590,423 L 592,423 L 593,424 L 593,425 L 590,428 L 589,428 L 585,432 L 582,433 L 580,435 L 580,438 L 583,438 L 590,433 L 591,434 L 591,436 L 589,437 L 584,442 L 583,442 L 582,444 L 581,444 L 581,447 L 584,447 L 587,445 L 589,446 L 589,447 L 584,452 L 583,452 L 583,456 L 585,456 L 588,454 L 590,455 L 590,456 L 585,461 L 585,464 L 586,464 L 588,466 L 584,470 L 584,472 L 587,474 L 587,475 L 584,478 L 584,480 L 585,481 L 585,486 L 587,486 L 588,487 L 588,488 L 585,491 L 585,494 L 586,495 L 586,499 L 587,500 L 590,500 L 591,501 L 591,504 L 594,504 L 596,507 L 599,507 L 600,506 L 608,506 L 609,505 L 612,505 L 613,504 L 626,504 L 627,503 L 634,503 L 636,502 L 636,499 L 635,498 L 630,498 L 629,499 L 621,499 L 620,498 L 622,496 L 625,496 L 628,494 L 631,494 L 633,492 L 634,492 L 634,490 L 633,489 L 628,489 L 625,491 L 623,491 L 615,495 L 610,495 L 609,494 L 609,493 L 613,490 L 615,490 L 617,488 L 619,488 L 621,486 L 622,486 L 623,485 L 623,483 L 622,482 L 620,482 L 616,485 L 611,487 L 610,485 L 615,481 L 615,479 L 610,479 L 606,476 L 608,474 L 607,466 L 606,465 L 603,465 L 602,464 L 606,460 L 606,458 L 603,458 L 600,460 L 599,459 L 600,456 L 604,453 L 604,450 L 603,450 L 601,448 L 605,444 L 605,441 L 602,441 L 600,442 L 599,440 L 606,433 L 606,430 L 604,430 L 602,428 L 609,422 L 608,417 L 610,415 L 610,412 L 607,412 L 605,414 L 603,414 L 601,416 L 600,416 L 598,414 L 600,413 L 601,411 L 602,411 L 604,409 L 611,405 L 611,403 L 610,402 L 607,402 L 606,401 L 607,399 L 610,398 L 610,395 L 607,395 L 604,397 L 601,397 L 600,396 L 607,391 L 609,391 L 610,390 L 610,387 L 604,388 L 603,386 L 607,383 L 609,383 L 611,381 L 612,381 Z" fill="black" stroke="none" /><path d="M 566,376 L 564,376 L 557,382 L 550,386 L 546,390 L 544,390 L 543,392 L 542,392 L 540,394 L 538,394 L 528,401 L 528,403 L 530,404 L 530,405 L 528,406 L 528,409 L 529,410 L 529,415 L 530,416 L 530,417 L 528,419 L 528,422 L 530,422 L 531,421 L 535,421 L 536,422 L 531,426 L 529,426 L 527,428 L 523,430 L 523,433 L 526,433 L 527,434 L 526,436 L 524,437 L 525,442 L 523,444 L 519,446 L 520,452 L 517,454 L 517,458 L 515,460 L 515,462 L 517,464 L 513,468 L 513,472 L 510,474 L 510,478 L 511,479 L 510,483 L 514,483 L 515,482 L 517,483 L 517,484 L 515,485 L 515,488 L 518,488 L 520,486 L 524,484 L 526,486 L 526,487 L 523,490 L 522,490 L 519,493 L 518,493 L 518,496 L 519,498 L 517,500 L 517,502 L 521,507 L 526,507 L 527,506 L 545,506 L 546,505 L 552,505 L 554,504 L 554,501 L 553,499 L 555,498 L 555,495 L 549,495 L 548,494 L 550,492 L 552,492 L 553,491 L 553,489 L 547,490 L 544,492 L 542,492 L 536,495 L 534,495 L 533,494 L 535,490 L 540,488 L 547,483 L 547,481 L 546,480 L 544,480 L 539,484 L 535,485 L 534,483 L 542,476 L 542,474 L 539,474 L 534,477 L 533,475 L 536,472 L 536,470 L 534,468 L 539,464 L 538,460 L 540,458 L 540,450 L 539,448 L 541,446 L 541,443 L 540,442 L 542,440 L 542,438 L 540,438 L 538,436 L 545,430 L 544,426 L 549,421 L 549,418 L 550,416 L 554,413 L 557,412 L 557,409 L 554,406 L 560,403 L 560,400 L 559,400 L 558,398 L 562,395 L 563,395 L 563,391 L 562,390 L 564,389 L 565,387 L 565,385 L 561,386 L 560,384 L 562,383 L 563,381 L 566,380 Z" fill="black" stroke="none" /><path d="M 320,370 L 317,374 L 311,387 L 306,394 L 304,399 L 302,401 L 298,409 L 295,412 L 295,414 L 291,418 L 291,421 L 292,422 L 294,422 L 298,417 L 302,409 L 307,404 L 308,402 L 309,403 L 308,410 L 306,411 L 306,413 L 304,415 L 297,429 L 295,431 L 295,435 L 297,435 L 300,433 L 301,434 L 301,435 L 299,437 L 299,441 L 301,441 L 304,438 L 306,439 L 306,440 L 301,446 L 301,449 L 304,449 L 306,447 L 308,448 L 307,450 L 305,451 L 304,455 L 307,455 L 311,452 L 313,453 L 312,456 L 307,461 L 307,465 L 308,466 L 307,471 L 311,474 L 311,477 L 314,477 L 315,478 L 313,479 L 313,483 L 314,484 L 314,488 L 316,491 L 313,494 L 313,497 L 314,498 L 317,498 L 318,497 L 324,497 L 326,500 L 326,502 L 327,502 L 330,506 L 368,506 L 368,501 L 365,501 L 361,498 L 357,498 L 355,496 L 355,495 L 354,494 L 352,494 L 349,490 L 339,490 L 337,491 L 335,489 L 335,488 L 337,486 L 341,486 L 343,485 L 343,482 L 340,482 L 339,483 L 334,483 L 333,484 L 330,484 L 329,483 L 329,482 L 331,480 L 332,480 L 334,478 L 337,478 L 339,476 L 339,474 L 338,473 L 336,473 L 334,475 L 332,475 L 328,477 L 326,477 L 325,476 L 328,472 L 336,468 L 336,464 L 333,464 L 329,466 L 327,468 L 325,468 L 324,469 L 322,468 L 322,467 L 329,460 L 330,460 L 330,456 L 328,456 L 326,458 L 323,459 L 322,457 L 328,451 L 328,449 L 325,449 L 321,452 L 319,451 L 320,448 L 324,444 L 325,442 L 325,439 L 323,439 L 320,441 L 318,440 L 318,439 L 324,433 L 324,429 L 322,429 L 318,433 L 315,434 L 314,432 L 323,421 L 323,417 L 319,418 L 319,419 L 316,422 L 315,422 L 314,424 L 312,422 L 314,420 L 314,418 L 318,414 L 318,413 L 323,406 L 323,402 L 320,402 L 317,406 L 317,407 L 312,413 L 310,414 L 308,413 L 308,411 L 310,410 L 310,408 L 314,403 L 314,401 L 316,399 L 318,394 L 320,392 L 320,390 L 322,388 L 329,374 L 329,372 L 328,371 L 326,371 L 324,373 L 323,372 L 323,370 Z" fill="black" stroke="none" /><path d="M 261,368 L 258,368 L 258,369 L 254,374 L 254,376 L 252,378 L 250,383 L 248,385 L 246,390 L 244,392 L 244,394 L 240,399 L 240,401 L 236,406 L 234,411 L 230,416 L 230,418 L 226,423 L 226,425 L 222,430 L 219,437 L 217,439 L 216,442 L 212,447 L 210,452 L 205,459 L 206,466 L 204,468 L 204,470 L 206,472 L 205,474 L 201,478 L 201,481 L 202,482 L 200,485 L 200,487 L 201,488 L 203,488 L 208,483 L 210,484 L 205,489 L 204,491 L 204,494 L 207,494 L 207,493 L 211,490 L 212,491 L 212,492 L 210,494 L 210,496 L 213,496 L 214,495 L 216,496 L 216,501 L 213,503 L 213,505 L 214,506 L 220,506 L 224,504 L 234,504 L 235,503 L 240,503 L 241,502 L 247,502 L 247,497 L 242,497 L 241,496 L 243,494 L 243,492 L 242,491 L 239,491 L 235,493 L 233,495 L 229,495 L 228,494 L 228,493 L 230,491 L 231,491 L 234,488 L 235,488 L 235,485 L 231,485 L 230,484 L 230,483 L 233,480 L 233,477 L 230,477 L 229,476 L 229,475 L 231,474 L 231,471 L 228,471 L 223,475 L 222,473 L 223,471 L 225,470 L 225,469 L 232,462 L 232,460 L 231,459 L 229,459 L 227,461 L 225,460 L 232,452 L 232,450 L 228,448 L 229,446 L 233,442 L 234,440 L 234,437 L 231,437 L 230,439 L 228,440 L 228,441 L 224,445 L 223,444 L 223,442 L 231,431 L 233,426 L 237,421 L 239,416 L 241,414 L 247,402 L 251,397 L 251,394 L 249,391 L 251,389 L 253,384 L 257,379 L 257,377 L 261,372 Z" fill="black" stroke="none" /><path d="M 826,359 L 822,359 L 819,362 L 818,362 L 816,364 L 815,364 L 813,366 L 812,366 L 810,368 L 809,368 L 807,370 L 800,374 L 797,377 L 794,378 L 791,381 L 788,382 L 785,385 L 778,389 L 775,392 L 774,392 L 775,396 L 773,398 L 772,398 L 772,399 L 769,402 L 768,402 L 766,404 L 765,404 L 763,406 L 756,410 L 755,412 L 750,414 L 749,416 L 748,416 L 746,418 L 745,418 L 743,420 L 742,420 L 740,422 L 739,422 L 737,424 L 736,424 L 726,431 L 726,435 L 729,435 L 735,430 L 742,426 L 746,422 L 747,422 L 749,420 L 750,420 L 752,418 L 753,418 L 755,416 L 762,412 L 766,408 L 768,408 L 773,404 L 775,404 L 776,405 L 776,407 L 774,408 L 773,410 L 766,414 L 765,416 L 758,420 L 757,422 L 756,422 L 754,424 L 752,424 L 751,426 L 750,426 L 748,428 L 744,430 L 741,433 L 740,433 L 737,436 L 734,437 L 730,440 L 730,443 L 734,445 L 733,447 L 733,450 L 736,450 L 740,446 L 741,446 L 743,444 L 750,440 L 751,438 L 752,438 L 754,436 L 758,434 L 762,430 L 769,426 L 769,424 L 770,423 L 771,425 L 773,425 L 774,426 L 774,429 L 773,430 L 771,430 L 769,432 L 762,436 L 761,438 L 759,438 L 755,442 L 754,442 L 752,444 L 748,446 L 745,449 L 744,449 L 737,454 L 737,457 L 741,457 L 749,450 L 753,448 L 754,446 L 755,446 L 757,444 L 764,440 L 768,436 L 771,436 L 774,434 L 776,436 L 771,440 L 770,440 L 766,444 L 764,444 L 763,446 L 756,450 L 755,452 L 754,452 L 752,454 L 748,456 L 745,459 L 741,461 L 741,464 L 745,464 L 749,460 L 750,460 L 754,456 L 758,454 L 759,452 L 763,450 L 767,446 L 768,446 L 770,444 L 773,444 L 774,443 L 775,444 L 775,446 L 773,448 L 772,448 L 769,451 L 766,452 L 765,454 L 764,454 L 760,458 L 756,460 L 753,463 L 749,465 L 746,468 L 746,471 L 748,471 L 752,468 L 753,468 L 753,467 L 755,466 L 759,462 L 763,460 L 764,458 L 768,456 L 770,457 L 770,458 L 767,461 L 766,461 L 765,463 L 764,463 L 761,466 L 760,466 L 750,474 L 750,478 L 752,478 L 756,474 L 757,474 L 758,472 L 759,472 L 765,466 L 766,466 L 767,464 L 768,464 L 772,460 L 775,459 L 775,456 L 776,455 L 778,456 L 777,458 L 777,462 L 775,464 L 774,464 L 774,465 L 772,466 L 771,468 L 770,468 L 766,472 L 765,472 L 761,476 L 760,476 L 755,481 L 753,482 L 753,484 L 754,485 L 756,485 L 758,484 L 764,478 L 765,478 L 765,477 L 767,476 L 768,474 L 772,472 L 773,470 L 775,470 L 776,471 L 776,472 L 767,481 L 766,481 L 765,483 L 764,483 L 761,486 L 760,486 L 756,490 L 756,493 L 759,493 L 761,492 L 761,491 L 763,490 L 764,488 L 765,488 L 771,482 L 772,482 L 772,481 L 774,480 L 779,475 L 781,475 L 782,476 L 780,480 L 778,481 L 777,483 L 776,483 L 762,496 L 762,499 L 765,499 L 767,498 L 767,497 L 769,496 L 775,490 L 776,490 L 776,489 L 778,488 L 778,487 L 780,486 L 786,480 L 789,480 L 790,481 L 790,483 L 779,493 L 778,493 L 778,494 L 776,495 L 770,501 L 770,504 L 774,504 L 776,502 L 776,501 L 778,500 L 779,498 L 780,498 L 786,492 L 787,492 L 788,494 L 780,502 L 780,506 L 783,506 L 783,505 L 785,504 L 786,502 L 789,501 L 790,502 L 789,503 L 789,505 L 790,506 L 793,506 L 794,508 L 798,508 L 799,506 L 813,491 L 813,488 L 810,488 L 809,489 L 807,489 L 806,488 L 813,481 L 813,478 L 810,478 L 804,483 L 803,481 L 812,472 L 812,469 L 808,469 L 807,468 L 809,467 L 809,466 L 811,464 L 812,464 L 813,462 L 814,462 L 815,460 L 815,458 L 814,457 L 812,457 L 794,474 L 792,475 L 790,473 L 790,471 L 795,466 L 796,466 L 796,465 L 798,464 L 798,463 L 800,462 L 801,460 L 802,460 L 806,456 L 807,456 L 813,450 L 813,448 L 812,447 L 810,447 L 808,449 L 806,448 L 811,443 L 813,442 L 814,438 L 811,438 L 795,452 L 793,453 L 791,453 L 790,452 L 792,450 L 792,449 L 795,446 L 796,446 L 797,444 L 798,444 L 799,442 L 800,442 L 803,439 L 804,439 L 807,436 L 808,436 L 808,435 L 813,431 L 813,429 L 811,426 L 813,424 L 814,424 L 814,422 L 810,422 L 808,424 L 807,424 L 806,426 L 805,426 L 800,430 L 799,430 L 798,428 L 803,423 L 810,419 L 813,416 L 814,416 L 819,412 L 819,410 L 815,408 L 819,404 L 820,404 L 820,401 L 819,400 L 817,400 L 813,404 L 812,404 L 808,408 L 804,410 L 803,412 L 802,412 L 797,416 L 794,416 L 793,415 L 793,414 L 800,408 L 801,408 L 807,403 L 810,402 L 813,399 L 818,396 L 818,393 L 815,393 L 813,394 L 812,396 L 808,398 L 804,402 L 803,402 L 801,404 L 799,404 L 796,407 L 795,407 L 794,405 L 796,403 L 797,403 L 798,401 L 799,401 L 801,399 L 802,399 L 804,397 L 805,397 L 807,395 L 814,391 L 817,388 L 817,386 L 814,386 L 812,388 L 808,390 L 804,394 L 800,396 L 797,399 L 796,399 L 793,402 L 792,402 L 789,405 L 786,406 L 784,408 L 782,409 L 780,408 L 779,406 L 783,402 L 784,402 L 785,400 L 786,400 L 788,398 L 790,398 L 791,396 L 792,396 L 794,394 L 798,392 L 801,389 L 802,389 L 804,387 L 805,387 L 807,385 L 808,385 L 810,383 L 817,379 L 820,376 L 821,376 L 824,373 L 824,370 L 820,370 L 816,374 L 815,374 L 813,376 L 812,376 L 810,378 L 803,382 L 802,384 L 800,384 L 795,388 L 794,388 L 793,386 L 795,385 L 799,381 L 806,377 L 807,375 L 808,375 L 819,367 L 825,364 L 826,363 Z" fill="black" stroke="none" /><path d="M 821,348 L 817,348 L 815,350 L 811,352 L 807,356 L 800,360 L 797,363 L 790,367 L 787,370 L 786,370 L 781,374 L 779,374 L 776,377 L 775,376 L 775,374 L 780,371 L 780,370 L 782,369 L 786,365 L 790,363 L 793,360 L 796,359 L 797,357 L 804,353 L 807,350 L 808,350 L 813,346 L 813,342 L 810,342 L 808,344 L 807,344 L 805,346 L 804,346 L 802,348 L 801,348 L 799,350 L 792,354 L 782,362 L 781,362 L 779,364 L 772,368 L 769,371 L 768,371 L 769,375 L 768,377 L 763,382 L 759,384 L 755,388 L 752,389 L 749,392 L 748,392 L 741,398 L 737,400 L 733,404 L 726,408 L 723,411 L 720,412 L 720,417 L 723,417 L 727,413 L 728,413 L 735,407 L 739,405 L 746,399 L 747,399 L 753,394 L 756,393 L 759,390 L 762,389 L 764,387 L 766,388 L 766,391 L 768,391 L 769,389 L 770,389 L 781,380 L 785,378 L 788,375 L 792,373 L 796,369 L 800,367 L 804,363 L 805,363 L 807,361 L 811,359 L 814,356 L 815,356 L 818,353 L 819,353 L 821,351 Z" fill="black" stroke="none" /><path d="M 792,345 L 791,344 L 789,344 L 782,350 L 781,350 L 779,352 L 772,356 L 761,365 L 760,365 L 752,371 L 748,372 L 747,370 L 749,367 L 750,367 L 753,364 L 754,364 L 757,361 L 758,361 L 761,358 L 762,358 L 765,355 L 766,355 L 785,340 L 785,337 L 784,336 L 782,336 L 773,344 L 772,344 L 769,347 L 762,351 L 758,355 L 754,357 L 750,361 L 749,361 L 744,365 L 741,366 L 739,364 L 739,363 L 741,362 L 747,356 L 748,356 L 751,353 L 755,351 L 769,339 L 773,337 L 779,332 L 779,329 L 776,329 L 774,330 L 749,350 L 745,352 L 743,351 L 743,350 L 745,349 L 746,347 L 747,347 L 751,343 L 752,343 L 758,337 L 762,335 L 766,331 L 767,331 L 770,328 L 771,328 L 774,325 L 775,325 L 775,322 L 774,321 L 772,321 L 770,322 L 765,327 L 764,327 L 761,330 L 760,330 L 757,333 L 756,333 L 752,337 L 748,339 L 747,341 L 746,341 L 742,345 L 738,347 L 737,349 L 735,349 L 734,350 L 732,350 L 731,349 L 732,346 L 734,345 L 735,343 L 736,343 L 740,339 L 744,337 L 748,333 L 749,333 L 753,329 L 754,329 L 758,325 L 759,325 L 763,321 L 764,321 L 769,317 L 769,314 L 765,314 L 755,323 L 754,323 L 750,327 L 746,329 L 742,333 L 741,333 L 737,336 L 735,336 L 734,335 L 747,323 L 751,321 L 752,319 L 756,317 L 760,313 L 761,313 L 766,309 L 766,306 L 762,306 L 749,317 L 748,317 L 744,321 L 740,323 L 739,325 L 732,329 L 726,334 L 724,334 L 723,333 L 725,331 L 725,330 L 727,329 L 727,327 L 725,327 L 724,329 L 720,331 L 704,345 L 703,345 L 700,348 L 699,348 L 693,354 L 692,354 L 688,358 L 687,358 L 683,362 L 682,362 L 678,366 L 677,366 L 673,370 L 672,370 L 672,374 L 676,374 L 689,363 L 690,363 L 694,359 L 698,357 L 702,353 L 703,353 L 711,347 L 714,346 L 715,347 L 713,350 L 712,350 L 702,359 L 701,359 L 688,370 L 687,370 L 682,374 L 682,377 L 683,378 L 685,378 L 695,369 L 699,367 L 700,365 L 701,365 L 708,359 L 709,359 L 710,357 L 717,353 L 717,352 L 721,349 L 723,349 L 725,351 L 723,352 L 723,353 L 721,355 L 720,355 L 715,360 L 714,360 L 705,368 L 704,368 L 701,371 L 700,371 L 695,376 L 691,378 L 691,382 L 694,382 L 707,371 L 708,371 L 712,367 L 713,367 L 716,364 L 717,364 L 722,359 L 723,359 L 726,356 L 727,356 L 730,353 L 731,353 L 733,355 L 733,357 L 729,361 L 728,361 L 727,363 L 726,363 L 720,368 L 719,368 L 714,373 L 710,375 L 705,380 L 704,380 L 697,386 L 697,389 L 700,389 L 709,381 L 713,379 L 714,377 L 715,377 L 723,371 L 724,373 L 719,378 L 718,378 L 717,380 L 716,380 L 712,384 L 708,386 L 704,390 L 702,391 L 702,394 L 705,394 L 710,390 L 711,390 L 714,387 L 715,387 L 723,380 L 727,378 L 731,374 L 732,374 L 737,370 L 741,369 L 742,368 L 743,369 L 743,371 L 739,375 L 738,375 L 734,379 L 731,380 L 726,385 L 722,387 L 714,394 L 713,394 L 709,397 L 709,399 L 710,400 L 713,400 L 721,393 L 728,389 L 738,381 L 744,378 L 745,379 L 745,380 L 741,384 L 740,384 L 739,386 L 738,386 L 734,390 L 727,394 L 723,398 L 722,398 L 714,404 L 714,406 L 715,407 L 718,407 L 722,403 L 723,403 L 725,401 L 726,401 L 728,399 L 729,399 L 731,397 L 732,397 L 734,395 L 735,395 L 737,393 L 744,389 L 747,386 L 748,386 L 750,384 L 757,380 L 757,378 L 756,378 L 755,376 L 761,370 L 762,370 L 773,361 L 777,359 L 781,355 L 788,351 L 792,347 Z" fill="black" stroke="none" /><path d="M 528,306 L 526,306 L 525,308 L 508,325 L 508,326 L 506,327 L 506,328 L 504,329 L 504,330 L 502,331 L 502,332 L 500,333 L 500,334 L 498,335 L 498,336 L 496,337 L 496,338 L 491,343 L 490,343 L 489,345 L 488,345 L 487,349 L 491,349 L 513,327 L 514,327 L 514,326 L 516,325 L 516,324 L 518,323 L 518,322 L 520,321 L 520,320 L 522,319 L 522,318 L 524,317 L 525,315 L 526,315 L 530,311 L 530,309 L 528,307 Z" fill="black" stroke="none" /><path d="M 264,285 L 262,285 L 262,287 L 260,289 L 260,291 L 258,293 L 258,295 L 256,297 L 256,299 L 254,301 L 254,303 L 252,307 L 250,309 L 250,311 L 244,322 L 244,324 L 242,326 L 234,342 L 234,344 L 232,346 L 232,348 L 230,350 L 230,352 L 228,354 L 228,356 L 226,358 L 224,362 L 224,364 L 222,366 L 218,375 L 216,377 L 216,379 L 213,383 L 214,387 L 217,387 L 217,386 L 219,384 L 219,382 L 221,380 L 221,378 L 223,376 L 223,374 L 225,372 L 227,367 L 229,365 L 229,363 L 231,361 L 236,350 L 238,348 L 243,337 L 245,335 L 250,324 L 252,322 L 252,320 L 256,315 L 256,313 L 258,311 L 258,309 L 260,307 L 262,302 L 264,300 L 264,297 L 266,296 L 266,294 L 264,294 L 264,296 L 263,297 L 261,296 L 261,293 L 263,290 Z" fill="black" stroke="none" /><path d="M 640,283 L 638,283 L 637,282 L 637,279 L 635,279 L 635,281 L 634,282 L 632,282 L 628,285 L 627,285 L 623,289 L 622,289 L 620,291 L 613,295 L 612,297 L 611,297 L 609,299 L 608,299 L 606,301 L 599,305 L 598,307 L 597,307 L 595,309 L 588,313 L 584,317 L 577,321 L 573,325 L 572,325 L 566,330 L 559,334 L 552,340 L 551,340 L 549,342 L 548,342 L 546,344 L 539,348 L 537,350 L 537,353 L 538,354 L 541,354 L 544,351 L 545,351 L 547,349 L 548,349 L 550,347 L 551,347 L 553,345 L 554,345 L 556,343 L 563,339 L 573,331 L 574,331 L 576,329 L 577,329 L 579,327 L 580,327 L 582,325 L 583,325 L 585,323 L 592,319 L 596,315 L 597,315 L 599,313 L 603,311 L 607,307 L 608,307 L 610,305 L 617,301 L 621,297 L 622,297 L 624,295 L 631,291 L 634,288 L 640,285 Z" fill="black" stroke="none" /><path d="M 761,299 L 760,298 L 757,298 L 751,303 L 748,304 L 746,306 L 745,306 L 740,310 L 737,311 L 729,317 L 721,321 L 716,325 L 711,327 L 706,331 L 701,333 L 691,340 L 686,342 L 685,341 L 691,335 L 695,333 L 698,330 L 699,330 L 710,321 L 714,319 L 718,315 L 719,315 L 722,312 L 726,310 L 733,304 L 737,302 L 744,296 L 747,295 L 750,292 L 751,292 L 752,291 L 752,288 L 751,287 L 748,287 L 741,292 L 733,296 L 731,298 L 724,301 L 717,306 L 712,308 L 707,312 L 705,312 L 703,314 L 698,316 L 693,320 L 691,320 L 689,322 L 684,324 L 679,328 L 677,328 L 675,330 L 670,332 L 668,334 L 656,340 L 651,344 L 649,344 L 641,350 L 639,350 L 634,354 L 632,354 L 627,358 L 625,358 L 617,364 L 615,364 L 613,366 L 611,366 L 610,365 L 610,364 L 612,363 L 616,359 L 623,355 L 632,347 L 633,347 L 640,341 L 644,339 L 648,335 L 649,335 L 652,332 L 653,332 L 656,329 L 657,329 L 660,326 L 661,326 L 664,323 L 665,323 L 668,320 L 669,320 L 673,316 L 674,316 L 677,313 L 678,313 L 681,310 L 682,310 L 686,306 L 690,304 L 693,301 L 694,301 L 697,298 L 698,298 L 701,295 L 702,295 L 705,292 L 706,292 L 710,288 L 714,286 L 718,282 L 719,282 L 726,276 L 730,274 L 734,270 L 741,266 L 741,261 L 737,261 L 735,262 L 727,269 L 726,269 L 720,274 L 716,276 L 713,279 L 706,283 L 702,287 L 701,287 L 695,292 L 688,296 L 685,299 L 678,303 L 674,307 L 673,307 L 671,309 L 664,313 L 660,317 L 659,317 L 657,319 L 650,323 L 647,326 L 646,326 L 643,329 L 639,331 L 636,334 L 635,334 L 627,340 L 625,340 L 624,339 L 630,333 L 631,333 L 635,329 L 636,329 L 640,325 L 641,325 L 642,323 L 643,323 L 647,319 L 648,319 L 652,315 L 653,315 L 657,311 L 658,311 L 659,309 L 660,309 L 664,305 L 665,305 L 676,295 L 677,295 L 680,292 L 681,292 L 687,286 L 688,286 L 692,282 L 693,282 L 697,278 L 698,278 L 702,274 L 703,274 L 709,268 L 710,268 L 714,264 L 715,264 L 718,261 L 719,261 L 728,253 L 727,249 L 725,249 L 718,255 L 717,255 L 714,258 L 713,258 L 710,261 L 709,261 L 705,265 L 698,269 L 694,273 L 693,273 L 686,279 L 679,283 L 678,285 L 671,289 L 670,291 L 663,295 L 659,299 L 658,299 L 656,301 L 652,303 L 648,307 L 641,311 L 640,313 L 633,317 L 630,320 L 629,320 L 621,326 L 619,326 L 618,325 L 620,324 L 627,317 L 628,317 L 632,313 L 633,313 L 637,309 L 638,309 L 642,305 L 643,305 L 647,301 L 648,301 L 651,297 L 653,297 L 654,295 L 655,295 L 659,291 L 663,289 L 664,287 L 665,287 L 668,284 L 669,284 L 674,279 L 675,279 L 688,268 L 689,268 L 692,265 L 693,265 L 696,262 L 697,262 L 711,250 L 715,248 L 716,246 L 720,244 L 722,242 L 722,239 L 718,239 L 711,245 L 704,249 L 700,253 L 699,253 L 692,259 L 685,263 L 670,275 L 663,279 L 660,282 L 657,283 L 653,287 L 649,289 L 648,291 L 646,291 L 645,293 L 643,293 L 639,296 L 638,296 L 637,295 L 640,292 L 641,292 L 642,290 L 643,290 L 643,288 L 639,289 L 638,291 L 637,291 L 633,295 L 629,297 L 628,299 L 621,303 L 617,307 L 613,309 L 609,313 L 605,315 L 601,319 L 597,321 L 594,324 L 593,324 L 590,327 L 589,327 L 586,330 L 585,330 L 582,333 L 581,333 L 578,336 L 577,336 L 574,339 L 573,339 L 570,342 L 569,342 L 565,346 L 561,348 L 546,360 L 545,360 L 543,362 L 539,364 L 536,367 L 535,367 L 535,371 L 539,371 L 541,370 L 544,367 L 548,365 L 555,359 L 559,357 L 563,353 L 564,353 L 566,351 L 570,349 L 573,346 L 574,346 L 577,343 L 584,339 L 588,335 L 589,335 L 591,333 L 595,331 L 598,328 L 599,328 L 602,325 L 603,325 L 605,323 L 612,319 L 616,315 L 623,311 L 627,307 L 628,307 L 630,305 L 637,301 L 638,299 L 641,298 L 644,295 L 645,295 L 646,293 L 648,293 L 649,291 L 651,291 L 655,288 L 656,290 L 652,295 L 650,295 L 649,297 L 645,299 L 640,304 L 639,304 L 636,307 L 635,307 L 631,311 L 630,311 L 626,315 L 625,315 L 620,320 L 619,320 L 616,323 L 615,323 L 611,327 L 610,327 L 601,335 L 600,335 L 597,338 L 596,338 L 592,342 L 591,342 L 572,358 L 571,358 L 568,361 L 567,361 L 562,366 L 561,366 L 542,382 L 538,384 L 538,385 L 536,386 L 532,390 L 528,392 L 528,396 L 531,396 L 547,383 L 548,383 L 550,381 L 551,381 L 553,379 L 560,375 L 567,369 L 574,365 L 578,361 L 582,359 L 586,355 L 590,353 L 593,350 L 594,350 L 597,347 L 598,347 L 602,343 L 609,339 L 613,335 L 620,331 L 624,327 L 631,323 L 635,319 L 642,315 L 643,313 L 650,309 L 656,304 L 658,304 L 659,305 L 654,310 L 653,310 L 648,315 L 647,315 L 646,317 L 645,317 L 641,321 L 640,321 L 636,325 L 635,325 L 634,327 L 633,327 L 630,330 L 629,330 L 624,335 L 623,335 L 622,337 L 621,337 L 618,340 L 617,340 L 600,355 L 599,355 L 596,358 L 595,358 L 594,360 L 593,360 L 589,364 L 588,364 L 584,368 L 583,368 L 579,372 L 578,372 L 574,376 L 573,376 L 572,380 L 575,380 L 577,379 L 587,371 L 588,371 L 594,366 L 595,366 L 598,363 L 599,363 L 601,361 L 608,357 L 612,353 L 613,353 L 633,339 L 634,340 L 634,341 L 631,344 L 630,344 L 629,346 L 628,346 L 619,354 L 615,356 L 602,367 L 601,367 L 590,376 L 583,380 L 579,384 L 575,386 L 572,389 L 572,392 L 575,392 L 582,387 L 590,383 L 592,381 L 604,375 L 606,373 L 608,373 L 610,371 L 612,371 L 614,369 L 616,369 L 618,367 L 623,365 L 625,363 L 630,361 L 632,359 L 644,353 L 651,348 L 656,346 L 663,341 L 668,339 L 670,337 L 675,335 L 677,333 L 689,327 L 691,325 L 694,324 L 701,319 L 703,319 L 706,316 L 709,316 L 710,317 L 708,318 L 704,322 L 703,322 L 700,325 L 696,327 L 693,330 L 692,330 L 689,333 L 688,333 L 669,348 L 665,350 L 661,354 L 654,358 L 650,362 L 643,366 L 639,370 L 632,374 L 630,376 L 630,379 L 631,380 L 634,380 L 644,373 L 645,373 L 647,371 L 655,367 L 666,359 L 674,355 L 682,349 L 685,348 L 687,346 L 690,345 L 698,339 L 701,338 L 706,334 L 709,333 L 720,325 L 728,321 L 730,322 L 730,324 L 734,323 L 748,311 L 749,311 L 752,308 L 753,308 L 757,304 L 761,302 Z" fill="black" stroke="none" /><path d="M 721,229 L 720,228 L 717,228 L 715,229 L 707,236 L 706,236 L 704,238 L 700,240 L 697,243 L 693,245 L 690,248 L 689,248 L 687,250 L 680,254 L 670,262 L 667,263 L 666,265 L 665,265 L 663,267 L 662,267 L 660,269 L 653,273 L 650,276 L 644,279 L 644,281 L 648,280 L 649,281 L 647,283 L 647,285 L 649,285 L 654,280 L 655,280 L 670,268 L 674,266 L 678,262 L 681,261 L 689,254 L 693,252 L 697,248 L 698,248 L 705,242 L 706,242 L 708,240 L 715,236 L 718,233 L 719,233 L 721,231 Z" fill="black" stroke="none" /><path d="M 715,221 L 711,221 L 709,223 L 702,227 L 699,230 L 698,230 L 696,232 L 695,232 L 693,234 L 692,234 L 690,236 L 689,236 L 687,238 L 686,238 L 684,240 L 677,244 L 674,247 L 668,250 L 665,253 L 664,253 L 662,255 L 661,255 L 659,257 L 658,257 L 656,259 L 655,259 L 653,261 L 652,261 L 650,263 L 649,263 L 647,265 L 640,269 L 640,271 L 642,271 L 643,272 L 643,274 L 645,274 L 647,272 L 651,270 L 654,267 L 655,267 L 658,264 L 659,264 L 662,261 L 665,260 L 676,251 L 679,250 L 680,248 L 681,248 L 683,246 L 684,246 L 686,244 L 693,240 L 697,236 L 704,232 L 708,228 L 714,225 L 715,224 Z" fill="black" stroke="none" /><path d="M 701,185 L 700,184 L 698,184 L 694,187 L 693,187 L 687,193 L 686,193 L 685,195 L 684,195 L 680,199 L 679,199 L 675,203 L 674,203 L 669,208 L 668,208 L 655,219 L 654,219 L 653,221 L 652,221 L 648,225 L 647,225 L 643,229 L 642,229 L 636,235 L 635,235 L 631,239 L 630,239 L 626,243 L 625,243 L 619,249 L 618,249 L 614,253 L 613,253 L 608,258 L 607,258 L 604,261 L 603,261 L 602,263 L 601,263 L 597,267 L 596,267 L 592,271 L 591,271 L 590,273 L 589,273 L 585,277 L 584,277 L 566,293 L 562,295 L 562,296 L 560,297 L 560,298 L 558,299 L 554,303 L 553,303 L 551,305 L 549,305 L 548,304 L 548,302 L 546,302 L 539,309 L 538,309 L 538,310 L 535,313 L 534,313 L 534,314 L 532,315 L 532,316 L 530,317 L 530,318 L 528,319 L 528,320 L 526,321 L 523,325 L 522,325 L 509,337 L 508,337 L 503,342 L 502,342 L 502,346 L 505,346 L 510,341 L 512,340 L 517,341 L 520,338 L 526,338 L 529,335 L 530,335 L 532,333 L 539,329 L 543,325 L 544,325 L 546,323 L 547,323 L 549,321 L 550,321 L 552,319 L 553,319 L 555,317 L 556,317 L 558,315 L 559,315 L 561,313 L 568,309 L 569,307 L 570,307 L 572,305 L 574,305 L 575,303 L 576,303 L 578,301 L 580,301 L 581,299 L 582,299 L 593,291 L 600,288 L 605,284 L 607,285 L 601,291 L 597,293 L 596,295 L 595,295 L 593,297 L 592,297 L 590,299 L 583,303 L 582,305 L 581,305 L 579,307 L 578,307 L 576,309 L 575,309 L 573,311 L 572,311 L 570,313 L 563,317 L 562,319 L 561,319 L 559,321 L 558,321 L 556,323 L 549,327 L 546,330 L 541,333 L 541,335 L 542,336 L 544,336 L 546,334 L 550,332 L 553,329 L 556,328 L 559,325 L 560,325 L 568,319 L 570,319 L 571,317 L 572,317 L 574,315 L 575,315 L 577,313 L 578,313 L 580,311 L 581,311 L 583,309 L 584,309 L 586,307 L 587,307 L 589,305 L 590,305 L 592,303 L 593,303 L 595,301 L 596,301 L 598,299 L 599,299 L 601,297 L 608,293 L 609,291 L 611,291 L 615,287 L 617,287 L 618,285 L 619,285 L 621,283 L 623,283 L 624,281 L 625,281 L 633,275 L 635,275 L 636,274 L 636,272 L 634,272 L 633,273 L 632,272 L 632,271 L 634,270 L 635,268 L 639,266 L 642,263 L 643,263 L 646,260 L 653,256 L 656,253 L 659,252 L 663,248 L 664,248 L 666,246 L 673,242 L 680,236 L 681,236 L 683,234 L 684,234 L 686,232 L 693,228 L 700,222 L 701,222 L 706,218 L 712,215 L 713,214 L 713,211 L 708,211 L 706,213 L 702,215 L 699,218 L 698,218 L 695,221 L 692,222 L 689,225 L 688,225 L 686,227 L 685,227 L 683,229 L 682,229 L 680,231 L 679,231 L 677,233 L 676,233 L 674,235 L 673,235 L 671,237 L 670,237 L 668,239 L 667,239 L 665,241 L 664,241 L 662,243 L 661,243 L 659,245 L 652,249 L 649,252 L 643,255 L 639,259 L 638,259 L 636,261 L 635,261 L 633,263 L 632,263 L 630,265 L 623,269 L 620,272 L 614,275 L 610,279 L 605,281 L 604,283 L 602,283 L 597,287 L 595,287 L 594,286 L 595,284 L 599,282 L 604,277 L 605,277 L 612,271 L 613,271 L 619,266 L 623,264 L 630,258 L 634,256 L 638,252 L 645,248 L 649,244 L 653,242 L 660,236 L 661,236 L 671,228 L 672,228 L 676,224 L 680,222 L 687,216 L 691,214 L 698,208 L 699,208 L 705,203 L 706,203 L 708,201 L 708,198 L 707,197 L 704,197 L 695,205 L 694,205 L 691,208 L 688,209 L 687,211 L 680,215 L 676,219 L 675,219 L 672,222 L 671,222 L 668,225 L 667,225 L 663,229 L 656,233 L 652,237 L 651,237 L 644,243 L 640,245 L 636,249 L 635,249 L 632,252 L 631,252 L 628,255 L 627,255 L 623,259 L 619,261 L 616,264 L 615,264 L 612,267 L 611,267 L 607,271 L 603,273 L 599,277 L 598,277 L 591,283 L 587,285 L 586,287 L 584,287 L 583,288 L 581,287 L 585,282 L 586,282 L 589,279 L 590,279 L 596,273 L 597,273 L 601,269 L 602,269 L 606,265 L 607,265 L 611,261 L 612,261 L 617,256 L 618,256 L 622,252 L 623,252 L 641,236 L 642,236 L 646,232 L 647,232 L 651,228 L 652,228 L 657,223 L 658,223 L 663,218 L 664,218 L 668,214 L 669,214 L 674,209 L 675,209 L 689,197 L 690,197 L 693,194 L 694,194 L 697,191 L 698,191 L 701,188 Z" fill="black" stroke="none" /><path d="M 684,172 L 683,171 L 680,171 L 664,187 L 663,187 L 657,193 L 656,193 L 656,194 L 654,195 L 654,196 L 652,197 L 644,205 L 643,205 L 643,206 L 641,207 L 640,209 L 639,209 L 633,215 L 632,215 L 622,225 L 621,225 L 620,227 L 619,227 L 610,236 L 609,236 L 600,245 L 599,245 L 599,246 L 597,247 L 596,249 L 595,249 L 572,271 L 571,271 L 570,273 L 569,273 L 559,283 L 558,283 L 556,285 L 556,286 L 554,287 L 547,294 L 547,296 L 549,296 L 550,297 L 549,298 L 549,300 L 551,300 L 563,288 L 564,288 L 571,281 L 572,281 L 573,279 L 574,279 L 581,272 L 582,272 L 583,270 L 584,270 L 595,259 L 596,259 L 607,248 L 608,248 L 609,246 L 610,246 L 635,222 L 636,222 L 653,205 L 654,205 L 654,204 L 656,203 L 656,202 L 658,201 L 659,199 L 660,199 L 680,179 L 681,179 L 684,176 Z" fill="black" stroke="none" /><path d="M 663,157 L 661,157 L 656,162 L 656,163 L 630,189 L 630,190 L 628,191 L 628,192 L 607,213 L 607,214 L 605,215 L 604,217 L 603,217 L 603,218 L 557,265 L 557,266 L 542,281 L 542,282 L 540,283 L 540,284 L 538,285 L 538,286 L 536,287 L 536,288 L 534,289 L 534,290 L 532,291 L 531,293 L 530,293 L 530,296 L 532,296 L 533,297 L 533,299 L 535,299 L 544,290 L 544,289 L 546,288 L 547,286 L 548,286 L 548,285 L 566,267 L 566,266 L 570,263 L 570,262 L 584,248 L 584,247 L 586,246 L 586,245 L 600,231 L 600,230 L 614,216 L 614,215 L 616,214 L 616,213 L 628,201 L 628,200 L 630,199 L 630,198 L 644,184 L 644,183 L 647,180 L 648,180 L 648,179 L 654,173 L 654,172 L 656,171 L 656,170 L 658,169 L 658,168 L 660,167 L 660,166 L 662,165 L 663,163 L 664,163 L 664,158 Z" fill="black" stroke="none" /><path d="M 291,128 L 286,128 L 282,136 L 282,138 L 280,140 L 278,144 L 278,146 L 276,148 L 276,150 L 274,152 L 274,154 L 272,156 L 272,159 L 270,161 L 270,163 L 268,164 L 268,167 L 266,168 L 266,170 L 260,178 L 259,177 L 259,175 L 260,174 L 261,169 L 263,166 L 264,162 L 266,160 L 266,158 L 270,151 L 270,149 L 277,136 L 277,134 L 279,132 L 279,128 L 275,128 L 268,142 L 268,144 L 266,146 L 266,148 L 264,150 L 262,154 L 262,156 L 260,158 L 254,170 L 250,174 L 249,173 L 250,171 L 250,168 L 248,168 L 248,170 L 246,173 L 246,175 L 244,178 L 244,180 L 242,183 L 242,185 L 236,197 L 236,199 L 234,203 L 234,208 L 236,208 L 238,206 L 253,176 L 254,175 L 256,177 L 256,178 L 254,180 L 254,183 L 250,190 L 250,192 L 246,199 L 246,201 L 244,203 L 244,205 L 242,207 L 242,209 L 235,222 L 235,227 L 238,227 L 241,223 L 241,221 L 243,219 L 243,217 L 262,180 L 265,177 L 269,177 L 270,176 L 270,174 L 272,171 L 272,169 L 274,167 L 274,165 L 276,163 L 276,161 L 278,158 L 278,156 L 280,154 L 280,152 L 282,149 L 282,147 L 284,145 L 284,143 L 291,130 Z" fill="black" stroke="none" /><path d="M 265,128 L 262,128 L 261,129 L 256,140 L 254,142 L 254,144 L 252,146 L 252,148 L 250,150 L 248,155 L 245,158 L 244,158 L 243,156 L 245,153 L 245,150 L 247,147 L 247,145 L 251,137 L 251,132 L 248,132 L 246,134 L 245,134 L 236,143 L 236,144 L 231,150 L 224,164 L 224,167 L 222,170 L 222,173 L 220,176 L 220,180 L 218,184 L 218,189 L 216,193 L 216,201 L 215,202 L 215,205 L 214,206 L 214,217 L 213,218 L 213,222 L 212,223 L 212,237 L 211,238 L 211,247 L 210,248 L 210,263 L 209,264 L 209,272 L 208,273 L 208,283 L 207,284 L 207,290 L 206,291 L 206,299 L 205,300 L 205,303 L 204,304 L 204,310 L 203,311 L 203,314 L 202,315 L 202,319 L 200,322 L 200,327 L 198,329 L 198,332 L 196,335 L 196,337 L 194,340 L 194,342 L 192,344 L 190,349 L 188,351 L 186,355 L 173,368 L 165,372 L 163,374 L 161,374 L 153,378 L 150,378 L 146,380 L 139,380 L 138,378 L 140,377 L 148,369 L 148,368 L 151,365 L 152,362 L 154,360 L 154,358 L 156,356 L 158,352 L 163,347 L 170,343 L 176,342 L 180,340 L 186,340 L 189,338 L 189,336 L 187,334 L 183,334 L 182,335 L 179,335 L 178,336 L 173,336 L 170,338 L 167,338 L 165,340 L 163,340 L 161,342 L 160,342 L 160,343 L 158,344 L 158,345 L 156,346 L 155,348 L 154,348 L 150,356 L 148,358 L 148,360 L 146,362 L 142,369 L 131,378 L 129,378 L 126,380 L 124,380 L 122,382 L 122,384 L 125,386 L 129,386 L 130,385 L 144,385 L 145,384 L 148,384 L 149,383 L 154,383 L 155,382 L 160,381 L 163,379 L 165,379 L 167,377 L 169,377 L 171,375 L 176,373 L 181,368 L 182,368 L 182,367 L 190,359 L 190,358 L 194,353 L 201,339 L 201,337 L 203,334 L 203,332 L 205,328 L 205,325 L 207,321 L 207,317 L 209,313 L 209,307 L 210,306 L 210,302 L 211,301 L 211,296 L 212,295 L 212,288 L 213,287 L 213,279 L 214,278 L 214,268 L 215,267 L 215,255 L 216,254 L 216,241 L 217,240 L 217,231 L 218,230 L 219,210 L 220,209 L 220,202 L 221,201 L 221,196 L 222,195 L 222,190 L 223,189 L 223,184 L 225,180 L 225,176 L 227,173 L 227,170 L 229,167 L 229,164 L 231,162 L 231,160 L 234,154 L 236,152 L 239,146 L 241,145 L 242,143 L 244,144 L 244,146 L 243,147 L 243,149 L 242,150 L 240,158 L 238,161 L 238,164 L 236,167 L 236,170 L 232,178 L 231,184 L 232,185 L 234,185 L 235,184 L 240,173 L 242,171 L 248,159 L 250,160 L 250,165 L 252,165 L 252,163 L 254,160 L 254,158 L 256,155 L 256,153 L 259,148 L 259,146 L 261,143 L 261,141 L 265,134 L 265,132 L 266,131 L 266,129 Z" fill="black" stroke="none" /><path d="M 359,126 L 355,126 L 347,143 L 345,145 L 345,147 L 341,152 L 341,154 L 339,156 L 335,165 L 333,167 L 329,176 L 327,178 L 327,180 L 325,182 L 321,191 L 319,193 L 317,198 L 315,200 L 315,202 L 313,204 L 310,211 L 308,213 L 308,215 L 306,217 L 296,237 L 294,239 L 294,241 L 292,243 L 292,245 L 288,250 L 288,252 L 284,257 L 284,259 L 282,261 L 282,263 L 278,268 L 278,270 L 276,272 L 276,274 L 278,274 L 279,273 L 279,272 L 283,267 L 283,265 L 284,264 L 285,265 L 285,268 L 278,281 L 278,284 L 276,285 L 276,287 L 278,287 L 278,285 L 280,284 L 280,282 L 282,280 L 282,278 L 284,276 L 284,274 L 286,272 L 286,270 L 290,265 L 290,262 L 294,257 L 294,255 L 296,253 L 296,251 L 298,249 L 298,247 L 300,245 L 300,243 L 302,241 L 302,239 L 304,237 L 308,228 L 310,226 L 310,224 L 312,220 L 314,218 L 314,216 L 316,214 L 316,212 L 318,210 L 322,201 L 324,199 L 324,197 L 326,195 L 326,193 L 328,191 L 328,189 L 330,187 L 340,166 L 342,164 L 342,162 L 344,160 L 344,158 L 346,156 L 346,154 L 348,152 L 352,143 L 354,141 L 354,139 L 356,137 L 358,132 L 360,130 L 360,127 Z" fill="black" stroke="none" /><path d="M 341,126 L 338,126 L 336,128 L 335,132 L 327,148 L 325,150 L 325,152 L 323,154 L 323,156 L 321,158 L 321,160 L 319,162 L 310,181 L 308,183 L 308,185 L 306,187 L 294,212 L 292,214 L 292,216 L 290,218 L 290,220 L 288,222 L 288,224 L 286,226 L 286,228 L 282,233 L 282,235 L 280,239 L 278,241 L 278,243 L 276,245 L 276,247 L 274,249 L 274,251 L 272,253 L 269,260 L 267,262 L 264,267 L 263,266 L 264,261 L 268,253 L 268,251 L 266,251 L 266,253 L 264,255 L 264,257 L 262,259 L 262,261 L 260,263 L 260,265 L 258,267 L 258,270 L 256,272 L 254,276 L 254,278 L 252,280 L 252,282 L 250,284 L 250,286 L 248,288 L 248,290 L 246,292 L 246,294 L 244,296 L 244,298 L 242,300 L 242,302 L 240,304 L 240,306 L 234,317 L 234,319 L 232,321 L 232,323 L 226,334 L 226,336 L 224,338 L 224,340 L 222,342 L 222,344 L 220,346 L 220,348 L 212,363 L 212,368 L 215,368 L 216,367 L 225,348 L 227,346 L 227,344 L 229,342 L 229,340 L 231,338 L 241,317 L 243,315 L 243,313 L 245,311 L 245,309 L 247,307 L 258,284 L 260,282 L 267,268 L 270,264 L 271,265 L 270,271 L 272,271 L 272,269 L 274,267 L 274,265 L 276,263 L 276,261 L 278,259 L 278,257 L 280,255 L 280,253 L 282,251 L 282,249 L 284,247 L 284,245 L 286,243 L 286,241 L 288,239 L 288,237 L 290,235 L 290,233 L 292,229 L 294,227 L 294,225 L 306,202 L 306,200 L 308,198 L 308,196 L 310,194 L 310,192 L 312,190 L 312,188 L 314,186 L 314,184 L 316,182 L 316,180 L 318,178 L 318,176 L 320,174 L 320,172 L 322,170 L 322,168 L 324,166 L 324,164 L 326,162 L 326,160 L 328,158 L 328,156 L 341,131 Z" fill="black" stroke="none" /><path d="M 646,149 L 642,149 L 636,155 L 636,156 L 613,181 L 613,182 L 606,189 L 606,190 L 599,197 L 599,198 L 597,199 L 597,200 L 589,208 L 589,209 L 583,215 L 583,216 L 581,217 L 581,218 L 575,224 L 575,225 L 567,233 L 567,234 L 560,241 L 560,242 L 544,259 L 544,260 L 538,266 L 538,267 L 530,275 L 530,276 L 528,277 L 526,281 L 524,282 L 520,286 L 520,288 L 519,289 L 515,290 L 514,289 L 520,282 L 522,278 L 526,274 L 526,273 L 530,269 L 530,268 L 546,249 L 548,245 L 560,231 L 562,227 L 564,226 L 566,222 L 570,218 L 570,217 L 574,213 L 574,212 L 590,193 L 590,192 L 593,189 L 593,188 L 601,179 L 601,178 L 604,175 L 604,174 L 608,170 L 608,169 L 624,150 L 624,149 L 626,147 L 626,144 L 625,143 L 622,143 L 618,147 L 618,148 L 614,152 L 614,153 L 609,158 L 609,159 L 605,163 L 605,164 L 593,177 L 593,178 L 589,182 L 589,183 L 583,189 L 583,190 L 579,194 L 579,195 L 561,215 L 561,216 L 556,221 L 556,222 L 552,226 L 552,227 L 545,234 L 545,235 L 541,239 L 541,240 L 534,247 L 534,248 L 516,268 L 516,269 L 507,279 L 507,280 L 494,294 L 493,293 L 493,291 L 495,290 L 498,284 L 501,281 L 501,280 L 507,273 L 509,269 L 518,258 L 520,254 L 526,247 L 526,246 L 531,240 L 533,236 L 536,233 L 538,229 L 540,228 L 541,225 L 553,210 L 553,209 L 558,203 L 560,199 L 564,195 L 566,191 L 570,187 L 574,180 L 578,176 L 580,172 L 592,157 L 596,150 L 603,142 L 603,138 L 602,137 L 599,137 L 599,138 L 595,142 L 595,143 L 592,146 L 592,147 L 589,150 L 589,151 L 577,165 L 575,169 L 571,173 L 571,174 L 555,193 L 555,194 L 552,197 L 552,198 L 548,202 L 548,203 L 545,206 L 545,207 L 541,211 L 541,212 L 537,216 L 537,217 L 532,222 L 532,223 L 529,226 L 529,227 L 521,236 L 521,237 L 518,240 L 518,241 L 514,245 L 514,246 L 510,250 L 510,251 L 506,255 L 506,256 L 502,260 L 502,261 L 498,265 L 498,266 L 494,270 L 494,271 L 490,275 L 490,276 L 486,280 L 486,281 L 480,287 L 479,286 L 480,283 L 483,280 L 483,279 L 485,277 L 485,276 L 487,274 L 487,273 L 489,271 L 493,264 L 499,257 L 499,256 L 501,254 L 505,247 L 508,244 L 509,241 L 515,234 L 516,231 L 519,228 L 519,227 L 521,225 L 521,224 L 523,222 L 527,215 L 530,212 L 530,211 L 532,209 L 536,202 L 539,199 L 541,195 L 549,185 L 549,184 L 551,182 L 555,175 L 558,172 L 558,171 L 560,169 L 564,162 L 570,155 L 571,152 L 583,137 L 584,133 L 583,132 L 579,132 L 571,142 L 569,146 L 565,150 L 565,151 L 559,158 L 559,159 L 555,163 L 553,167 L 549,171 L 549,172 L 546,175 L 546,176 L 543,179 L 543,180 L 540,183 L 540,184 L 537,187 L 537,188 L 533,192 L 533,193 L 530,196 L 530,197 L 527,200 L 527,201 L 523,205 L 523,206 L 520,209 L 520,210 L 517,213 L 517,214 L 514,217 L 514,218 L 510,222 L 510,223 L 507,226 L 507,227 L 504,230 L 504,231 L 496,240 L 494,244 L 486,253 L 484,257 L 476,266 L 474,270 L 466,279 L 466,280 L 460,287 L 458,291 L 454,295 L 454,296 L 452,297 L 451,295 L 453,291 L 465,274 L 466,271 L 469,268 L 469,266 L 471,264 L 471,263 L 487,240 L 489,235 L 491,233 L 491,232 L 493,230 L 493,229 L 495,227 L 495,226 L 511,203 L 512,200 L 516,195 L 517,192 L 519,190 L 519,189 L 521,187 L 521,186 L 523,184 L 523,183 L 539,160 L 540,157 L 546,149 L 547,146 L 552,140 L 553,137 L 559,129 L 559,126 L 558,125 L 555,125 L 553,126 L 553,128 L 551,130 L 551,131 L 549,133 L 549,134 L 547,136 L 543,143 L 539,147 L 539,148 L 537,150 L 537,151 L 535,153 L 535,154 L 533,156 L 529,163 L 526,166 L 526,167 L 521,173 L 520,176 L 517,179 L 513,186 L 510,189 L 510,190 L 508,192 L 504,199 L 496,209 L 496,210 L 494,212 L 494,213 L 492,215 L 492,216 L 490,218 L 486,225 L 482,229 L 482,230 L 480,232 L 480,233 L 478,235 L 478,236 L 476,238 L 476,239 L 474,241 L 470,248 L 468,249 L 468,250 L 466,252 L 466,253 L 464,255 L 460,262 L 457,265 L 456,268 L 450,275 L 449,278 L 446,281 L 442,288 L 438,292 L 438,293 L 436,294 L 435,292 L 437,288 L 439,286 L 441,281 L 445,276 L 445,274 L 449,269 L 451,264 L 456,257 L 459,250 L 461,248 L 467,236 L 471,231 L 473,226 L 475,224 L 477,219 L 479,217 L 485,205 L 489,200 L 489,198 L 493,193 L 493,191 L 497,186 L 497,184 L 503,176 L 503,174 L 507,169 L 513,157 L 517,152 L 517,150 L 521,145 L 521,143 L 527,135 L 527,133 L 529,131 L 529,126 L 525,126 L 521,134 L 515,142 L 514,145 L 510,150 L 509,153 L 505,158 L 504,161 L 494,175 L 490,183 L 480,197 L 479,200 L 475,205 L 474,208 L 462,225 L 461,228 L 459,230 L 456,236 L 450,244 L 449,247 L 446,250 L 443,256 L 435,266 L 434,265 L 435,261 L 433,261 L 427,273 L 423,278 L 423,280 L 419,285 L 417,290 L 413,295 L 413,297 L 411,299 L 407,307 L 403,312 L 403,314 L 399,319 L 397,324 L 395,326 L 391,334 L 386,341 L 386,345 L 389,345 L 391,343 L 392,340 L 394,338 L 398,330 L 404,322 L 405,319 L 411,311 L 412,308 L 415,305 L 415,303 L 427,286 L 428,283 L 431,280 L 431,278 L 433,276 L 433,275 L 435,273 L 435,272 L 451,249 L 452,246 L 455,243 L 455,241 L 457,240 L 459,235 L 461,234 L 461,232 L 463,230 L 463,229 L 465,228 L 465,226 L 468,222 L 470,223 L 470,225 L 468,229 L 466,231 L 464,236 L 462,238 L 460,243 L 458,245 L 456,250 L 454,252 L 448,264 L 443,271 L 440,278 L 438,280 L 436,285 L 434,287 L 428,299 L 423,306 L 421,311 L 417,316 L 415,321 L 410,328 L 408,333 L 406,335 L 403,341 L 399,346 L 399,349 L 400,350 L 403,350 L 404,349 L 404,348 L 406,346 L 406,345 L 408,343 L 408,342 L 410,340 L 410,339 L 412,337 L 412,336 L 414,334 L 414,333 L 416,331 L 420,324 L 423,321 L 423,320 L 425,318 L 425,317 L 427,315 L 427,314 L 429,312 L 429,311 L 431,309 L 435,302 L 438,299 L 438,298 L 441,295 L 445,288 L 451,281 L 451,280 L 453,278 L 453,277 L 455,275 L 459,268 L 463,264 L 463,263 L 465,261 L 469,254 L 473,250 L 473,249 L 476,245 L 478,246 L 476,250 L 470,258 L 466,266 L 458,277 L 457,280 L 454,283 L 453,286 L 451,288 L 450,291 L 444,299 L 443,302 L 440,305 L 439,308 L 429,322 L 428,325 L 426,327 L 426,328 L 424,330 L 424,331 L 422,333 L 422,334 L 420,336 L 416,343 L 413,346 L 412,349 L 410,350 L 410,354 L 411,355 L 413,355 L 416,352 L 418,348 L 422,344 L 424,340 L 439,321 L 441,317 L 443,316 L 445,312 L 453,303 L 453,302 L 456,299 L 456,298 L 459,295 L 459,294 L 463,290 L 465,286 L 470,281 L 470,280 L 473,277 L 473,276 L 477,272 L 477,271 L 480,268 L 480,267 L 483,264 L 483,263 L 485,262 L 487,258 L 491,254 L 491,253 L 494,250 L 494,249 L 497,246 L 497,245 L 500,242 L 500,241 L 503,238 L 503,237 L 505,236 L 505,235 L 509,231 L 511,227 L 513,226 L 513,225 L 516,222 L 517,224 L 515,226 L 513,230 L 510,233 L 509,236 L 506,239 L 506,240 L 504,242 L 504,243 L 502,245 L 502,246 L 500,248 L 500,249 L 498,251 L 494,258 L 491,261 L 490,264 L 484,271 L 483,274 L 480,277 L 480,278 L 478,280 L 478,281 L 476,283 L 472,290 L 466,297 L 465,300 L 462,303 L 462,304 L 460,306 L 460,307 L 458,309 L 454,316 L 450,320 L 450,321 L 448,323 L 444,330 L 441,333 L 441,334 L 438,337 L 434,344 L 428,351 L 428,353 L 429,354 L 433,354 L 434,353 L 434,352 L 438,348 L 440,344 L 443,341 L 443,340 L 446,337 L 446,336 L 449,333 L 449,332 L 451,331 L 453,327 L 465,313 L 467,309 L 471,305 L 471,304 L 475,300 L 475,299 L 479,295 L 479,294 L 483,290 L 483,289 L 487,285 L 487,284 L 491,280 L 491,279 L 495,275 L 495,274 L 499,270 L 499,269 L 504,264 L 504,263 L 507,260 L 507,259 L 512,254 L 512,253 L 515,250 L 515,249 L 525,238 L 526,236 L 527,237 L 527,239 L 525,241 L 521,248 L 518,251 L 514,258 L 510,262 L 508,266 L 504,270 L 500,277 L 494,284 L 490,291 L 484,298 L 484,299 L 476,309 L 474,313 L 470,317 L 468,321 L 464,325 L 462,329 L 459,332 L 459,333 L 456,336 L 456,337 L 453,340 L 453,341 L 450,344 L 450,345 L 448,346 L 448,351 L 451,351 L 455,347 L 455,346 L 459,342 L 459,341 L 463,337 L 463,336 L 469,330 L 469,329 L 483,313 L 483,312 L 488,307 L 488,306 L 493,301 L 493,300 L 495,299 L 495,298 L 499,294 L 499,293 L 506,286 L 506,285 L 512,279 L 512,278 L 518,272 L 518,271 L 524,265 L 524,264 L 543,243 L 543,242 L 545,241 L 546,239 L 547,240 L 547,242 L 545,243 L 545,244 L 540,250 L 538,254 L 530,263 L 530,264 L 527,267 L 527,268 L 524,271 L 524,272 L 520,276 L 520,277 L 517,280 L 517,281 L 514,284 L 514,285 L 510,289 L 510,290 L 507,293 L 507,294 L 504,297 L 504,298 L 502,299 L 500,303 L 496,307 L 496,308 L 492,312 L 492,313 L 488,317 L 488,318 L 484,322 L 484,323 L 480,327 L 480,328 L 464,347 L 464,349 L 465,350 L 468,350 L 471,347 L 471,346 L 475,342 L 475,341 L 495,319 L 495,318 L 500,313 L 500,312 L 502,311 L 502,310 L 508,304 L 508,303 L 516,295 L 516,294 L 518,293 L 519,289 L 520,288 L 522,288 L 526,284 L 526,283 L 530,280 L 530,278 L 532,277 L 538,271 L 539,271 L 540,272 L 539,274 L 534,279 L 534,281 L 530,284 L 530,286 L 528,287 L 527,289 L 526,289 L 526,291 L 522,294 L 520,298 L 518,299 L 517,301 L 516,301 L 516,302 L 511,307 L 511,308 L 506,313 L 506,314 L 504,315 L 504,316 L 494,327 L 494,328 L 492,329 L 492,330 L 486,336 L 486,337 L 484,338 L 484,339 L 478,345 L 477,349 L 478,350 L 480,350 L 483,347 L 483,346 L 485,345 L 485,344 L 490,339 L 490,338 L 527,300 L 527,298 L 525,298 L 524,299 L 523,298 L 523,297 L 526,294 L 526,292 L 528,291 L 529,289 L 530,289 L 530,287 L 532,286 L 535,282 L 536,282 L 536,281 L 540,277 L 540,276 L 542,275 L 542,274 L 546,270 L 546,269 L 548,268 L 548,267 L 552,263 L 552,262 L 558,256 L 558,255 L 560,254 L 560,253 L 566,247 L 566,246 L 570,242 L 570,241 L 576,235 L 576,234 L 582,228 L 582,227 L 588,221 L 588,220 L 594,214 L 594,213 L 618,186 L 618,185 L 628,174 L 628,173 L 632,169 L 632,168 L 634,167 L 634,166 L 646,153 Z" fill="black" stroke="none" /><path d="M 314,125 L 311,125 L 310,126 L 307,132 L 307,134 L 294,159 L 294,161 L 292,163 L 292,165 L 290,167 L 290,169 L 288,171 L 288,173 L 286,175 L 286,177 L 284,179 L 284,181 L 282,183 L 282,185 L 280,187 L 280,189 L 278,191 L 277,195 L 274,198 L 272,196 L 272,194 L 274,192 L 274,189 L 276,188 L 276,185 L 278,183 L 278,181 L 280,179 L 280,177 L 282,175 L 282,172 L 284,170 L 284,168 L 286,166 L 286,164 L 288,162 L 288,160 L 290,157 L 290,155 L 292,153 L 292,151 L 294,149 L 294,147 L 300,136 L 300,134 L 302,132 L 302,127 L 299,127 L 297,129 L 297,131 L 295,134 L 295,136 L 293,138 L 293,140 L 290,146 L 288,148 L 288,150 L 284,158 L 282,160 L 282,163 L 280,165 L 280,167 L 278,169 L 278,171 L 276,173 L 276,175 L 274,177 L 274,180 L 272,182 L 270,187 L 266,192 L 264,190 L 264,189 L 262,189 L 262,191 L 260,194 L 260,196 L 258,198 L 258,201 L 256,203 L 256,205 L 254,207 L 254,209 L 252,212 L 252,214 L 250,216 L 250,218 L 248,220 L 248,222 L 246,225 L 246,227 L 244,229 L 244,231 L 237,245 L 237,248 L 241,248 L 242,247 L 243,243 L 252,226 L 252,224 L 254,220 L 256,218 L 256,216 L 258,212 L 260,210 L 260,208 L 265,199 L 268,196 L 270,197 L 270,199 L 268,201 L 268,204 L 266,206 L 266,208 L 264,210 L 264,212 L 262,214 L 262,216 L 260,218 L 260,220 L 258,222 L 258,225 L 256,227 L 256,229 L 254,231 L 254,233 L 250,240 L 250,242 L 248,244 L 248,246 L 246,248 L 246,250 L 244,252 L 244,254 L 238,265 L 238,267 L 239,268 L 242,268 L 243,267 L 243,265 L 252,248 L 252,246 L 254,244 L 254,242 L 256,240 L 256,238 L 258,234 L 260,232 L 260,230 L 264,222 L 266,220 L 269,213 L 272,210 L 273,211 L 275,211 L 276,210 L 276,208 L 278,206 L 278,204 L 280,202 L 280,200 L 282,198 L 282,195 L 284,194 L 284,192 L 286,190 L 286,187 L 288,185 L 288,183 L 290,181 L 290,179 L 292,177 L 292,175 L 294,173 L 294,171 L 298,164 L 298,162 L 300,160 L 300,158 L 304,151 L 304,149 L 315,128 L 315,126 Z" fill="black" stroke="none" /><path d="M 512,125 L 509,125 L 507,127 L 504,134 L 500,139 L 500,141 L 494,149 L 492,154 L 488,159 L 488,161 L 486,163 L 483,169 L 481,171 L 480,174 L 476,179 L 474,184 L 470,189 L 465,199 L 463,201 L 462,204 L 460,206 L 459,209 L 457,211 L 453,219 L 449,224 L 447,229 L 443,234 L 442,237 L 438,241 L 438,242 L 435,246 L 434,245 L 435,240 L 439,235 L 439,233 L 441,231 L 441,229 L 443,228 L 443,226 L 445,224 L 445,222 L 449,217 L 449,215 L 451,213 L 455,205 L 459,200 L 459,198 L 461,196 L 463,191 L 465,189 L 471,177 L 475,172 L 475,170 L 477,168 L 479,163 L 481,161 L 483,156 L 485,154 L 487,149 L 489,147 L 495,135 L 499,130 L 499,125 L 498,124 L 496,124 L 496,125 L 494,127 L 486,143 L 484,145 L 478,157 L 474,162 L 474,164 L 467,174 L 465,179 L 463,181 L 461,186 L 459,188 L 456,195 L 452,200 L 449,207 L 447,209 L 441,221 L 437,226 L 437,228 L 435,230 L 433,235 L 431,237 L 429,242 L 427,244 L 427,246 L 425,247 L 425,249 L 423,251 L 423,253 L 421,255 L 421,256 L 419,257 L 419,259 L 415,264 L 413,262 L 413,261 L 411,261 L 411,262 L 409,264 L 409,267 L 407,269 L 407,271 L 403,276 L 403,278 L 401,280 L 401,282 L 399,283 L 399,286 L 397,287 L 397,289 L 395,291 L 393,296 L 391,298 L 391,300 L 389,302 L 389,304 L 387,305 L 387,307 L 385,309 L 381,318 L 379,320 L 379,322 L 375,327 L 375,329 L 371,334 L 371,336 L 369,338 L 367,343 L 365,345 L 363,350 L 361,352 L 359,356 L 359,359 L 360,360 L 362,360 L 366,355 L 368,350 L 370,348 L 370,346 L 374,341 L 374,339 L 376,337 L 376,335 L 378,333 L 378,332 L 380,330 L 380,328 L 384,323 L 385,319 L 388,316 L 388,314 L 391,311 L 392,307 L 394,306 L 394,304 L 398,299 L 398,297 L 399,296 L 401,297 L 400,298 L 400,300 L 398,302 L 396,307 L 394,309 L 394,311 L 392,315 L 390,317 L 385,327 L 383,329 L 383,331 L 380,334 L 379,337 L 377,339 L 377,342 L 380,342 L 382,340 L 382,338 L 387,331 L 389,326 L 393,321 L 395,316 L 399,311 L 399,309 L 405,301 L 405,299 L 411,291 L 411,289 L 413,287 L 413,286 L 415,285 L 415,282 L 417,281 L 417,279 L 419,277 L 419,276 L 421,274 L 421,272 L 429,261 L 429,259 L 431,258 L 431,256 L 433,255 L 433,254 L 435,252 L 436,253 L 436,257 L 438,257 L 439,256 L 439,254 L 443,249 L 443,247 L 447,242 L 447,240 L 451,235 L 451,233 L 453,231 L 457,223 L 461,218 L 461,216 L 463,214 L 465,209 L 469,204 L 469,202 L 471,200 L 475,192 L 479,187 L 479,185 L 483,180 L 483,178 L 487,173 L 489,168 L 491,166 L 497,154 L 499,152 L 503,144 L 507,139 L 507,137 L 513,129 L 513,126 Z" fill="black" stroke="none" /><path d="M 485,124 L 482,124 L 481,125 L 478,132 L 476,134 L 476,136 L 474,138 L 472,143 L 470,145 L 468,150 L 466,152 L 464,157 L 462,159 L 460,164 L 458,166 L 452,178 L 450,180 L 445,190 L 443,192 L 441,197 L 439,199 L 437,204 L 435,206 L 433,211 L 431,213 L 431,215 L 427,220 L 427,222 L 423,227 L 423,229 L 419,234 L 419,236 L 417,237 L 417,240 L 415,241 L 415,243 L 413,244 L 413,247 L 411,248 L 411,250 L 409,251 L 409,254 L 411,254 L 411,251 L 413,250 L 413,248 L 415,247 L 415,244 L 417,243 L 417,241 L 419,240 L 419,238 L 422,236 L 422,234 L 423,233 L 424,234 L 424,236 L 427,236 L 427,234 L 429,232 L 429,230 L 431,228 L 433,223 L 435,221 L 435,219 L 439,214 L 439,212 L 441,210 L 441,208 L 445,203 L 445,201 L 447,199 L 449,194 L 451,192 L 451,190 L 453,188 L 455,183 L 457,181 L 457,179 L 459,177 L 463,168 L 465,166 L 467,161 L 469,159 L 469,157 L 471,155 L 475,146 L 477,144 L 479,139 L 481,137 L 483,132 L 485,130 L 485,128 L 486,127 L 486,125 Z" fill="black" stroke="none" /><path d="M 471,124 L 469,124 L 466,128 L 466,130 L 464,132 L 462,137 L 460,139 L 458,144 L 456,146 L 456,148 L 454,150 L 448,162 L 443,169 L 440,176 L 438,178 L 432,190 L 430,192 L 425,202 L 423,204 L 423,206 L 419,211 L 417,216 L 415,218 L 415,220 L 411,225 L 411,227 L 407,232 L 407,234 L 405,236 L 405,237 L 403,239 L 403,241 L 399,246 L 399,248 L 397,249 L 397,251 L 393,256 L 393,258 L 395,258 L 396,257 L 396,256 L 399,252 L 399,249 L 400,248 L 402,248 L 402,246 L 403,245 L 404,246 L 403,252 L 401,254 L 399,258 L 399,260 L 397,262 L 397,264 L 395,266 L 395,268 L 393,269 L 393,271 L 391,273 L 391,275 L 389,277 L 389,279 L 385,284 L 385,286 L 383,288 L 383,290 L 379,295 L 379,297 L 377,299 L 375,304 L 373,306 L 373,308 L 371,310 L 367,319 L 365,321 L 365,323 L 361,328 L 361,330 L 359,332 L 359,334 L 355,339 L 355,341 L 353,343 L 351,348 L 349,350 L 349,352 L 345,357 L 342,363 L 342,365 L 343,366 L 346,366 L 349,362 L 350,359 L 352,357 L 353,354 L 355,352 L 356,349 L 358,347 L 359,344 L 364,337 L 367,330 L 372,323 L 375,316 L 377,314 L 383,302 L 385,300 L 385,298 L 389,293 L 389,291 L 391,289 L 391,287 L 393,285 L 393,283 L 397,278 L 397,276 L 401,271 L 401,269 L 403,267 L 403,265 L 405,264 L 405,262 L 407,260 L 407,257 L 405,257 L 404,256 L 404,254 L 406,251 L 406,249 L 409,245 L 409,243 L 411,241 L 411,239 L 415,234 L 415,232 L 417,230 L 417,228 L 421,223 L 421,221 L 423,219 L 423,217 L 427,212 L 427,210 L 429,208 L 429,206 L 431,204 L 431,203 L 433,201 L 433,199 L 437,194 L 437,192 L 439,190 L 439,188 L 441,186 L 443,181 L 445,179 L 445,177 L 447,175 L 449,170 L 451,168 L 451,166 L 453,164 L 455,159 L 457,157 L 457,155 L 459,153 L 463,144 L 465,142 L 465,140 L 467,138 L 469,133 L 471,131 L 472,129 L 472,125 Z" fill="black" stroke="none" /><path d="M 328,124 L 324,124 L 308,157 L 306,159 L 306,161 L 304,165 L 302,167 L 302,169 L 300,171 L 300,173 L 298,175 L 298,177 L 296,179 L 296,181 L 294,183 L 294,185 L 292,187 L 292,189 L 288,194 L 288,197 L 286,199 L 284,204 L 282,206 L 282,208 L 280,210 L 279,213 L 276,217 L 272,217 L 270,219 L 270,221 L 268,223 L 268,226 L 266,228 L 266,230 L 264,232 L 264,234 L 262,236 L 262,238 L 260,240 L 260,242 L 258,244 L 258,246 L 254,253 L 254,255 L 252,257 L 252,259 L 250,261 L 250,263 L 248,265 L 248,267 L 246,269 L 246,271 L 244,275 L 242,277 L 242,279 L 240,283 L 238,285 L 238,289 L 239,290 L 241,290 L 243,288 L 243,286 L 254,264 L 256,262 L 256,260 L 258,258 L 258,256 L 260,254 L 260,252 L 262,250 L 262,248 L 264,246 L 264,244 L 266,242 L 266,240 L 268,238 L 275,224 L 277,222 L 277,221 L 279,220 L 280,222 L 278,225 L 278,228 L 280,228 L 280,226 L 282,224 L 282,222 L 284,220 L 284,217 L 286,215 L 286,213 L 288,211 L 288,209 L 290,208 L 290,205 L 292,203 L 292,201 L 294,199 L 294,197 L 300,186 L 300,184 L 302,182 L 302,180 L 304,178 L 304,176 L 312,161 L 312,159 L 314,157 L 314,155 L 316,153 L 316,151 L 318,149 L 318,147 L 322,139 L 324,137 L 324,135 L 326,131 L 328,129 Z" fill="black" stroke="none" /><path d="M 454,125 L 450,126 L 450,128 L 448,130 L 448,132 L 446,134 L 444,139 L 442,141 L 440,146 L 438,148 L 438,150 L 436,152 L 434,157 L 432,159 L 430,164 L 428,166 L 425,173 L 423,175 L 420,182 L 418,184 L 415,191 L 413,193 L 411,198 L 409,200 L 407,205 L 405,207 L 405,209 L 401,214 L 399,219 L 397,221 L 397,223 L 395,225 L 393,230 L 389,235 L 389,237 L 385,242 L 385,244 L 381,249 L 381,251 L 377,256 L 377,258 L 375,260 L 373,265 L 371,267 L 369,272 L 367,274 L 365,279 L 363,281 L 363,283 L 359,288 L 359,290 L 357,291 L 357,293 L 353,298 L 352,297 L 352,295 L 354,292 L 354,290 L 356,288 L 356,286 L 358,284 L 358,282 L 360,280 L 360,278 L 362,276 L 364,272 L 364,270 L 366,268 L 372,255 L 374,253 L 381,238 L 383,236 L 383,234 L 385,232 L 385,230 L 387,228 L 387,226 L 389,224 L 395,211 L 397,209 L 397,207 L 399,205 L 405,192 L 407,190 L 407,188 L 409,186 L 415,173 L 417,171 L 425,154 L 427,152 L 434,137 L 436,135 L 440,127 L 440,125 L 439,124 L 436,124 L 434,126 L 434,128 L 432,130 L 432,132 L 430,134 L 426,143 L 424,145 L 422,150 L 420,152 L 416,161 L 414,163 L 412,168 L 410,170 L 407,177 L 403,182 L 403,184 L 401,186 L 399,191 L 397,193 L 397,195 L 393,200 L 393,202 L 391,204 L 391,206 L 387,211 L 387,213 L 385,215 L 385,216 L 383,218 L 383,220 L 379,225 L 379,227 L 377,229 L 375,234 L 373,236 L 371,241 L 369,243 L 369,245 L 365,250 L 365,252 L 361,257 L 361,259 L 353,270 L 352,269 L 352,267 L 354,265 L 354,263 L 356,261 L 356,259 L 358,257 L 358,255 L 362,247 L 364,245 L 364,243 L 366,241 L 366,239 L 368,237 L 368,235 L 370,233 L 373,226 L 375,224 L 375,222 L 377,220 L 377,218 L 379,216 L 383,207 L 385,205 L 385,203 L 387,201 L 389,196 L 391,194 L 391,192 L 393,190 L 399,177 L 401,175 L 409,158 L 411,156 L 417,143 L 419,141 L 422,134 L 424,132 L 426,128 L 426,124 L 422,124 L 418,132 L 416,134 L 416,136 L 414,138 L 412,143 L 410,145 L 407,152 L 405,154 L 403,159 L 401,161 L 399,166 L 397,168 L 395,173 L 393,175 L 393,177 L 389,182 L 387,187 L 385,189 L 385,191 L 381,196 L 381,198 L 379,200 L 377,205 L 375,207 L 373,212 L 371,214 L 369,219 L 367,221 L 365,226 L 363,228 L 361,233 L 359,235 L 357,240 L 355,242 L 353,247 L 351,249 L 349,254 L 347,256 L 345,261 L 343,263 L 341,268 L 339,270 L 333,282 L 331,283 L 331,285 L 330,286 L 328,285 L 328,283 L 330,280 L 330,278 L 332,276 L 332,274 L 334,272 L 334,270 L 336,268 L 338,263 L 340,261 L 340,259 L 342,255 L 344,253 L 344,251 L 346,247 L 348,245 L 348,243 L 350,241 L 350,239 L 352,237 L 362,216 L 364,214 L 364,212 L 366,210 L 366,208 L 368,206 L 368,204 L 370,202 L 378,185 L 380,183 L 388,166 L 390,164 L 390,162 L 392,160 L 402,139 L 404,137 L 404,135 L 406,133 L 409,127 L 409,124 L 408,123 L 404,124 L 388,156 L 383,163 L 383,165 L 381,167 L 379,172 L 377,174 L 377,176 L 375,178 L 373,183 L 371,185 L 371,187 L 369,189 L 365,198 L 363,200 L 363,202 L 361,204 L 359,209 L 357,211 L 353,220 L 351,222 L 349,227 L 347,229 L 347,231 L 345,233 L 341,242 L 339,244 L 337,249 L 335,251 L 335,253 L 333,255 L 331,260 L 329,262 L 329,264 L 327,265 L 327,267 L 326,268 L 324,267 L 324,265 L 328,258 L 328,256 L 330,254 L 330,252 L 332,250 L 332,248 L 334,246 L 334,244 L 336,242 L 336,240 L 344,225 L 344,223 L 346,221 L 348,217 L 348,215 L 350,213 L 354,205 L 354,203 L 356,201 L 356,199 L 358,197 L 358,195 L 382,148 L 382,146 L 384,144 L 388,135 L 390,133 L 390,131 L 391,130 L 391,126 L 387,126 L 386,127 L 379,142 L 377,144 L 375,149 L 373,151 L 371,156 L 369,158 L 369,160 L 367,162 L 365,167 L 363,169 L 361,174 L 359,176 L 357,181 L 355,183 L 355,185 L 351,190 L 348,197 L 343,204 L 336,218 L 334,220 L 332,225 L 330,227 L 328,232 L 323,239 L 316,253 L 311,260 L 308,267 L 306,269 L 304,274 L 302,276 L 300,281 L 298,283 L 296,288 L 294,290 L 292,295 L 288,300 L 286,305 L 283,308 L 283,310 L 282,311 L 281,310 L 281,307 L 283,305 L 283,303 L 286,299 L 286,297 L 288,295 L 292,286 L 294,284 L 294,282 L 296,280 L 296,278 L 298,276 L 298,274 L 300,272 L 302,267 L 304,265 L 304,263 L 306,261 L 306,259 L 310,254 L 310,252 L 312,250 L 312,248 L 314,246 L 314,244 L 316,242 L 318,237 L 320,235 L 320,233 L 324,228 L 324,226 L 326,222 L 328,220 L 328,218 L 330,216 L 334,207 L 336,205 L 336,203 L 338,201 L 338,199 L 340,197 L 340,195 L 344,190 L 344,188 L 346,186 L 346,184 L 348,182 L 348,180 L 350,178 L 354,169 L 356,167 L 356,165 L 358,163 L 358,161 L 360,159 L 366,146 L 368,144 L 368,142 L 370,140 L 370,138 L 372,136 L 374,132 L 374,128 L 370,128 L 367,133 L 367,135 L 365,137 L 365,139 L 363,141 L 361,146 L 359,148 L 357,153 L 355,155 L 355,157 L 351,162 L 351,164 L 349,166 L 349,168 L 345,173 L 345,175 L 343,177 L 339,186 L 337,188 L 329,204 L 327,206 L 320,220 L 318,222 L 314,231 L 312,233 L 310,238 L 308,240 L 308,242 L 306,244 L 304,249 L 302,251 L 302,253 L 300,255 L 298,260 L 296,262 L 296,264 L 292,269 L 292,271 L 290,273 L 290,274 L 288,276 L 288,278 L 284,283 L 284,285 L 282,287 L 280,291 L 280,293 L 278,294 L 277,297 L 272,304 L 271,303 L 271,301 L 273,298 L 274,293 L 276,292 L 276,289 L 274,289 L 274,292 L 272,293 L 272,295 L 270,297 L 270,299 L 268,301 L 268,303 L 266,305 L 266,307 L 264,309 L 264,311 L 262,313 L 262,315 L 260,317 L 240,357 L 238,359 L 238,361 L 236,363 L 234,367 L 234,369 L 230,374 L 230,376 L 228,378 L 228,380 L 226,382 L 222,391 L 220,393 L 220,395 L 216,400 L 216,402 L 214,404 L 214,406 L 212,408 L 210,412 L 210,415 L 214,415 L 215,414 L 217,409 L 219,407 L 219,405 L 221,403 L 229,387 L 231,385 L 235,376 L 237,374 L 239,369 L 241,367 L 246,356 L 248,354 L 250,349 L 252,347 L 262,327 L 264,325 L 266,320 L 268,318 L 270,313 L 272,311 L 272,309 L 274,307 L 276,302 L 278,300 L 280,296 L 280,294 L 282,293 L 286,286 L 287,287 L 287,290 L 276,312 L 274,314 L 274,316 L 272,318 L 272,320 L 270,322 L 270,324 L 266,329 L 266,331 L 264,333 L 264,335 L 262,337 L 262,339 L 258,344 L 258,346 L 256,348 L 256,350 L 254,352 L 254,354 L 250,359 L 250,361 L 248,363 L 248,365 L 246,367 L 246,369 L 244,371 L 244,373 L 242,375 L 240,380 L 238,382 L 238,384 L 236,386 L 236,388 L 234,390 L 234,392 L 232,394 L 222,414 L 220,416 L 218,421 L 216,423 L 216,425 L 214,427 L 212,432 L 210,434 L 210,436 L 207,440 L 207,442 L 208,443 L 210,443 L 215,436 L 215,434 L 217,432 L 219,427 L 223,422 L 223,420 L 227,415 L 227,413 L 229,411 L 231,406 L 233,404 L 235,399 L 237,397 L 239,392 L 241,390 L 247,378 L 249,376 L 253,368 L 257,363 L 259,358 L 261,356 L 263,351 L 265,349 L 267,344 L 269,342 L 271,337 L 273,335 L 275,330 L 277,328 L 279,323 L 281,321 L 283,316 L 285,314 L 287,309 L 289,307 L 291,302 L 293,300 L 295,295 L 297,293 L 300,286 L 302,284 L 304,279 L 306,277 L 308,272 L 310,270 L 312,265 L 314,263 L 320,251 L 324,246 L 324,244 L 326,242 L 328,237 L 330,235 L 332,230 L 334,228 L 336,223 L 338,221 L 338,219 L 340,217 L 340,216 L 344,211 L 344,209 L 348,204 L 349,205 L 349,208 L 347,210 L 347,212 L 345,214 L 345,216 L 339,227 L 339,229 L 337,231 L 335,235 L 335,237 L 333,239 L 333,241 L 316,274 L 316,276 L 295,317 L 295,319 L 293,321 L 291,325 L 291,327 L 289,329 L 287,333 L 287,335 L 285,337 L 285,339 L 275,357 L 275,360 L 276,361 L 278,361 L 280,359 L 290,339 L 292,337 L 292,335 L 294,333 L 298,324 L 300,322 L 300,320 L 304,315 L 304,313 L 306,311 L 306,309 L 308,307 L 310,302 L 312,300 L 312,298 L 314,296 L 316,291 L 318,289 L 318,287 L 320,285 L 320,283 L 324,278 L 324,276 L 328,271 L 333,261 L 334,260 L 336,261 L 335,265 L 333,267 L 333,269 L 331,271 L 331,273 L 329,275 L 329,277 L 326,281 L 324,285 L 324,287 L 322,289 L 322,291 L 320,293 L 314,306 L 312,308 L 312,310 L 310,314 L 308,316 L 302,329 L 300,331 L 283,365 L 281,367 L 279,372 L 276,376 L 276,379 L 278,380 L 280,380 L 281,379 L 288,365 L 290,363 L 294,354 L 296,352 L 298,347 L 300,345 L 302,340 L 304,338 L 304,336 L 306,334 L 312,322 L 316,317 L 316,315 L 320,310 L 320,308 L 324,303 L 324,301 L 326,299 L 328,294 L 330,292 L 332,287 L 334,285 L 336,280 L 338,278 L 340,273 L 342,271 L 348,259 L 354,251 L 354,249 L 358,244 L 358,242 L 360,240 L 363,235 L 365,236 L 363,241 L 361,243 L 361,245 L 359,247 L 359,249 L 357,251 L 357,253 L 355,255 L 355,257 L 353,259 L 353,261 L 351,263 L 340,286 L 338,288 L 333,299 L 331,301 L 331,303 L 329,305 L 320,324 L 318,326 L 314,335 L 312,337 L 305,352 L 303,354 L 297,367 L 295,369 L 295,371 L 293,373 L 291,378 L 289,380 L 287,385 L 285,387 L 285,389 L 283,391 L 283,395 L 284,396 L 286,396 L 287,395 L 291,387 L 295,382 L 300,372 L 302,370 L 304,365 L 306,363 L 308,358 L 312,353 L 312,351 L 314,349 L 316,344 L 320,339 L 320,337 L 322,335 L 324,330 L 326,328 L 326,326 L 328,324 L 330,319 L 332,317 L 332,315 L 334,313 L 336,308 L 338,306 L 338,304 L 342,299 L 342,297 L 344,295 L 348,286 L 350,284 L 358,268 L 360,266 L 362,261 L 364,259 L 364,257 L 366,255 L 366,254 L 368,252 L 368,250 L 372,245 L 372,243 L 373,242 L 375,244 L 373,248 L 371,250 L 371,252 L 369,255 L 369,257 L 367,259 L 367,261 L 365,263 L 365,265 L 363,267 L 363,269 L 361,271 L 361,273 L 359,275 L 359,277 L 357,279 L 349,296 L 347,298 L 339,315 L 337,317 L 328,336 L 326,338 L 319,353 L 317,355 L 303,384 L 301,386 L 295,399 L 293,401 L 291,406 L 288,410 L 288,414 L 291,414 L 292,413 L 302,393 L 304,391 L 304,389 L 308,384 L 308,382 L 310,381 L 310,379 L 312,377 L 314,372 L 322,361 L 322,359 L 324,357 L 326,352 L 328,350 L 330,345 L 332,343 L 334,338 L 336,336 L 336,334 L 338,332 L 344,320 L 348,315 L 348,313 L 350,311 L 352,306 L 354,304 L 356,299 L 358,297 L 360,292 L 362,290 L 365,283 L 367,281 L 369,276 L 371,274 L 373,269 L 375,267 L 377,262 L 379,260 L 385,248 L 387,246 L 388,243 L 392,238 L 392,236 L 395,232 L 396,233 L 396,236 L 391,245 L 391,248 L 389,249 L 389,252 L 387,253 L 387,254 L 385,256 L 385,258 L 383,260 L 383,262 L 381,264 L 381,266 L 379,268 L 379,270 L 377,272 L 377,274 L 375,276 L 375,278 L 373,280 L 371,285 L 369,287 L 369,289 L 361,305 L 359,307 L 359,309 L 357,311 L 351,324 L 349,326 L 349,328 L 347,330 L 343,339 L 341,341 L 341,343 L 339,345 L 339,347 L 337,351 L 335,353 L 331,362 L 329,364 L 329,367 L 330,368 L 332,368 L 334,366 L 342,350 L 344,348 L 346,343 L 348,341 L 350,336 L 352,334 L 354,329 L 356,327 L 359,320 L 364,313 L 368,304 L 373,297 L 373,295 L 375,293 L 379,285 L 381,283 L 383,279 L 383,277 L 385,276 L 385,273 L 387,272 L 387,270 L 389,269 L 389,267 L 391,266 L 391,263 L 393,262 L 393,260 L 391,260 L 391,262 L 389,263 L 389,266 L 387,267 L 387,269 L 385,270 L 385,272 L 383,273 L 383,276 L 381,277 L 380,279 L 378,278 L 378,276 L 380,274 L 380,272 L 382,270 L 382,268 L 384,266 L 384,264 L 387,260 L 387,258 L 389,255 L 389,253 L 391,252 L 391,249 L 393,248 L 393,246 L 395,244 L 403,227 L 405,225 L 405,223 L 407,221 L 407,219 L 409,217 L 409,215 L 411,213 L 413,208 L 415,206 L 415,204 L 417,202 L 417,200 L 419,198 L 419,196 L 421,194 L 429,177 L 431,175 L 431,173 L 433,171 L 439,158 L 441,156 L 441,154 L 443,152 L 447,143 L 449,141 L 449,139 L 451,137 L 453,132 L 455,130 L 455,126 Z" fill="black" stroke="none" /></g></svg>